<svg width="1208" height="1200" viewBox="0 0 1208 1200" fill="none" xmlns="http://www.w3.org/2000/svg">
<path fill-rule="evenodd" clip-rule="evenodd" d="M179.356 705.89H473.164L554.106 465.843L405.511 80.9445L179.356 705.89ZM0.558594 1200H265.372L127.167 850.016L0.558594 1200Z" fill="url(#paint0_linear_3502_8724)"/>
<path fill-rule="evenodd" clip-rule="evenodd" d="M153.269 762.306L254.265 1019.39L315.757 1174.99C337.871 1124.26 373.161 1080.38 417.962 1047.9C418.557 1047.39 419.205 1046.94 419.895 1046.57C472.703 1008.62 536.077 988.168 601.109 988.098C664.777 988.057 726.927 1007.54 779.181 1043.91C779.445 1044.1 779.759 1044.19 780.081 1044.19C780.403 1044.19 780.717 1044.09 780.98 1043.91C781.244 1043.73 781.444 1043.46 781.555 1043.16C781.665 1042.86 781.68 1042.53 781.597 1042.22L730.495 886.256L689.178 762.306H153.269ZM434.754 0L898.057 1200H1207.45L773.262 0H434.754Z" fill="url(#paint1_linear_3502_8724)"/>
<defs>
<linearGradient id="paint0_linear_3502_8724" x1="155.931" y1="1.02023" x2="1240.64" y2="1175.47" gradientUnits="userSpaceOnUse">
<stop stop-color="#05A9A9"/>
<stop offset="1" stop-color="#FFA500"/>
</linearGradient>
<linearGradient id="paint1_linear_3502_8724" x1="155.931" y1="1.02023" x2="1240.64" y2="1175.47" gradientUnits="userSpaceOnUse">
<stop stop-color="#05A9A9"/>
<stop offset="1" stop-color="#FFA500"/>
</linearGradient>
</defs>
</svg>
